ffmpeg started on 2025-06-06 at 18:54:48
Report written to "D:\Convert\FFMetrics\reports\psnr_report-6.txt"
Log level: 32
Command line:
ffmpeg -hide_banner -nostdin -i "G:\\\xc0\xed\xe8\xec\xe5\\\xce\xed\xe3\xee\xe8\xed\xe3\xe8\\!_36_\xce\xf1\xe5\xed\xfc_2024\\DreamCast\\\xcf\xf3\xed\xe8\xf0\xf3 - \xec\xe8\xeb\xe0\xff \xf1\xeb\xe8\xe7\xfc\\[DC] Puniru wa Kawaii Slime - 08_Telegram_HEVC.mkv" -i "G:\\\xc0\xed\xe8\xec\xe5\\\xce\xed\xe3\xee\xe8\xed\xe3\xe8\\!_36_\xce\xf1\xe5\xed\xfc_2024\\DreamCast\\\xcf\xf3\xed\xe8\xf0\xf3 - \xec\xe8\xeb\xe0\xff \xf1\xeb\xe8\xe7\xfc\\[DC] Puniru wa Kawaii Slime - 08_Telegram.mp4" -lavfi "[0:v]settb=AVTB,setpts=PTS-STARTPTS,format=pix_fmts=yuv420p10,fps=24000/1001,scale=1920:1080:flags=bicubic[main];[1:v]settb=AVTB,setpts=PTS-STARTPTS,format=pix_fmts=yuv420p,fps=24000/1001,scale=1920:1080:flags=bicubic[ref];[main][ref]psnr=eof_action=endall:stats_file='D\\:/Convert/FFMetrics/logs/psnr_logfile-6.txt'" -f null -
Input #0, matroska,webm, from 'G:\Аниме\Онгоинги\!_36_Осень_2024\DreamCast\Пуниру - милая слизь\[DC] Puniru wa Kawaii Slime - 08_Telegram_HEVC.mkv':
  Metadata:
    COMPATIBLE_BRANDS: isomiso2avc1mp41
    MAJOR_BRAND     : isom
    MINOR_VERSION   : 512
    ENCODER         : Lavf61.7.100
  Duration: 00:23:56.72, start: -0.021000, bitrate: 1403 kb/s
  Stream #0:0: Video: hevc (Main 10), yuv420p10le(tv, bt709, progressive), 1920x1080 [SAR 1:1 DAR 16:9], 23.98 fps, 23.98 tbr, 1k tbn (default)
      Metadata:
        HANDLER_NAME    : VideoHandler
        VENDOR_ID       : [0][0][0][0]
        ENCODER         : Lavc61.19.100 libx265
        BPS             : 1206511
        DURATION        : 00:23:56.559708333
        NUMBER_OF_FRAMES: 34443
        NUMBER_OF_BYTES : 216653165
        _STATISTICS_WRITING_APP: mkvpropedit v66.0.0 ('Josie') 64-bit
        _STATISTICS_WRITING_DATE_UTC: 2025-06-03 13:08:19
        _STATISTICS_TAGS: BPS DURATION NUMBER_OF_FRAMES NUMBER_OF_BYTES
  Stream #0:1: Audio: aac (LC), 48000 Hz, stereo, fltp (default)
      Metadata:
        HANDLER_NAME    : SoundHandler
        VENDOR_ID       : [0][0][0][0]
        ENCODER         : Lavc61.19.100 aac
        BPS             : 193224
        DURATION        : 00:23:56.714000000
        NUMBER_OF_FRAMES: 67347
        NUMBER_OF_BYTES : 34701065
        _STATISTICS_WRITING_APP: mkvpropedit v66.0.0 ('Josie') 64-bit
        _STATISTICS_WRITING_DATE_UTC: 2025-06-03 13:08:19
        _STATISTICS_TAGS: BPS DURATION NUMBER_OF_FRAMES NUMBER_OF_BYTES
Input #1, mov,mp4,m4a,3gp,3g2,mj2, from 'G:\Аниме\Онгоинги\!_36_Осень_2024\DreamCast\Пуниру - милая слизь\[DC] Puniru wa Kawaii Slime - 08_Telegram.mp4':
  Metadata:
    major_brand     : isom
    minor_version   : 512
    compatible_brands: isomiso2avc1mp41
    encoder         : Lavf61.1.100
  Duration: 00:23:56.68, start: 0.000000, bitrate: 3627 kb/s
  Stream #1:0[0x1](und): Video: h264 (High) (avc1 / 0x31637661), yuv420p(tv, bt709, progressive), 1920x1080 [SAR 1:1 DAR 16:9], 3479 kb/s, 23.98 fps, 23.98 tbr, 24k tbn (default)
      Metadata:
        handler_name    : VideoHandler
        vendor_id       : [0][0][0][0]
        encoder         : Lavc61.3.100 h264_qsv
  Stream #1:1[0x2](und): Audio: aac (HE-AACv2) (mp4a / 0x6134706D), 48000 Hz, stereo, fltp, 144 kb/s (default)
      Metadata:
        handler_name    : SoundHandler
        vendor_id       : [0][0][0][0]
Stream mapping:
  Stream #0:0 (hevc) -> settb:default
  Stream #1:0 (h264) -> settb:default
  psnr:default -> Stream #0:0 (wrapped_avframe)
  Stream #0:1 -> #0:1 (aac (native) -> pcm_s16le (native))
Output #0, null, to 'pipe:':
  Metadata:
    COMPATIBLE_BRANDS: isomiso2avc1mp41
    MAJOR_BRAND     : isom
    MINOR_VERSION   : 512
    encoder         : Lavf61.7.100
  Stream #0:0: Video: wrapped_avframe, yuv420p10le(tv, bt709, progressive), 1920x1080 [SAR 1:1 DAR 16:9], q=2-31, 200 kb/s, 23.98 fps, 23.98 tbn
      Metadata:
        encoder         : Lavc61.19.100 wrapped_avframe
  Stream #0:1: Audio: pcm_s16le, 48000 Hz, stereo, s16, 1536 kb/s (default)
      Metadata:
        HANDLER_NAME    : SoundHandler
        VENDOR_ID       : [0][0][0][0]
        _STATISTICS_TAGS: BPS DURATION NUMBER_OF_FRAMES NUMBER_OF_BYTES
        BPS             : 193224
        DURATION        : 00:23:56.714000000
        NUMBER_OF_FRAMES: 67347
        NUMBER_OF_BYTES : 34701065
        _STATISTICS_WRITING_APP: mkvpropedit v66.0.0 ('Josie') 64-bit
        _STATISTICS_WRITING_DATE_UTC: 2025-06-03 13:08:19
        encoder         : Lavc61.19.100 pcm_s16le
frame=  175 fps=0.0 q=-0.0 size=N/A time=00:00:07.29 bitrate=N/A speed=14.3x    frame=  394 fps=382 q=-0.0 size=N/A time=00:00:16.43 bitrate=N/A speed=15.9x    frame=  562 fps=366 q=-0.0 size=N/A time=00:00:23.44 bitrate=N/A speed=15.3x    frame=  758 fps=368 q=-0.0 size=N/A time=00:00:31.61 bitrate=N/A speed=15.4x    frame=  977 fps=380 q=-0.0 size=N/A time=00:00:40.74 bitrate=N/A speed=15.9x    frame= 1213 fps=393 q=-0.0 size=N/A time=00:00:50.59 bitrate=N/A speed=16.4x    frame= 1401 fps=388 q=-0.0 size=N/A time=00:00:58.43 bitrate=N/A speed=16.2x    frame= 1554 fps=377 q=-0.0 size=N/A time=00:01:04.81 bitrate=N/A speed=15.7x    frame= 1716 fps=371 q=-0.0 size=N/A time=00:01:11.57 bitrate=N/A speed=15.5x    frame= 1911 fps=371 q=-0.0 size=N/A time=00:01:19.70 bitrate=N/A speed=15.5x    frame= 2116 fps=374 q=-0.0 size=N/A time=00:01:28.25 bitrate=N/A speed=15.6x    frame= 2340 fps=378 q=-0.0 size=N/A time=00:01:37.59 bitrate=N/A speed=15.8x    frame= 2605 fps=389 q=-0.0 size=N/A time=00:01:48.65 bitrate=N/A speed=16.2x    frame= 2894 fps=401 q=-0.0 size=N/A time=00:02:00.70 bitrate=N/A speed=16.7x    frame= 3149 fps=407 q=-0.0 size=N/A time=00:02:11.33 bitrate=N/A speed=  17x    frame= 3425 fps=416 q=-0.0 size=N/A time=00:02:22.85 bitrate=N/A speed=17.3x    frame= 3691 fps=421 q=-0.0 size=N/A time=00:02:33.94 bitrate=N/A speed=17.6x    frame= 3953 fps=426 q=-0.0 size=N/A time=00:02:44.87 bitrate=N/A speed=17.8x    frame= 4196 fps=429 q=-0.0 size=N/A time=00:02:55.00 bitrate=N/A speed=17.9x    frame= 4437 fps=430 q=-0.0 size=N/A time=00:03:05.05 bitrate=N/A speed=  18x    frame= 4705 fps=435 q=-0.0 size=N/A time=00:03:16.23 bitrate=N/A speed=18.1x    frame= 4930 fps=435 q=-0.0 size=N/A time=00:03:25.62 bitrate=N/A speed=18.1x    frame= 5102 fps=430 q=-0.0 size=N/A time=00:03:32.79 bitrate=N/A speed=17.9x    frame= 5299 fps=428 q=-0.0 size=N/A time=00:03:41.01 bitrate=N/A speed=17.9x    frame= 5535 fps=430 q=-0.0 size=N/A time=00:03:50.85 bitrate=N/A speed=17.9x    frame= 5794 fps=432 q=-0.0 size=N/A time=00:04:01.65 bitrate=N/A speed=  18x    frame= 6054 fps=435 q=-0.0 size=N/A time=00:04:12.50 bitrate=N/A speed=18.2x    frame= 6328 fps=438 q=-0.0 size=N/A time=00:04:23.97 bitrate=N/A speed=18.3x    frame= 6565 fps=439 q=-0.0 size=N/A time=00:04:33.81 bitrate=N/A speed=18.3x    frame= 6851 fps=443 q=-0.0 size=N/A time=00:04:45.74 bitrate=N/A speed=18.5x    frame= 7091 fps=444 q=-0.0 size=N/A time=00:04:55.75 bitrate=N/A speed=18.5x    frame= 7271 fps=441 q=-0.0 size=N/A time=00:05:03.26 bitrate=N/A speed=18.4x    frame= 7539 fps=443 q=-0.0 size=N/A time=00:05:14.43 bitrate=N/A speed=18.5x    frame= 7778 fps=444 q=-0.0 size=N/A time=00:05:24.40 bitrate=N/A speed=18.5x    frame= 7955 fps=441 q=-0.0 size=N/A time=00:05:31.78 bitrate=N/A speed=18.4x    frame= 8211 fps=442 q=-0.0 size=N/A time=00:05:42.46 bitrate=N/A speed=18.5x    frame= 8430 fps=442 q=-0.0 size=N/A time=00:05:51.60 bitrate=N/A speed=18.4x    frame= 8654 fps=442 q=-0.0 size=N/A time=00:06:00.94 bitrate=N/A speed=18.4x    frame= 8879 fps=442 q=-0.0 size=N/A time=00:06:10.32 bitrate=N/A speed=18.4x    frame= 9088 fps=441 q=-0.0 size=N/A time=00:06:19.04 bitrate=N/A speed=18.4x    frame= 9277 fps=439 q=-0.0 size=N/A time=00:06:26.92 bitrate=N/A speed=18.3x    frame= 9507 fps=439 q=-0.0 size=N/A time=00:06:36.52 bitrate=N/A speed=18.3x    frame= 9723 fps=439 q=-0.0 size=N/A time=00:06:45.53 bitrate=N/A speed=18.3x    frame=10002 fps=441 q=-0.0 size=N/A time=00:06:57.16 bitrate=N/A speed=18.4x    frame=10276 fps=443 q=-0.0 size=N/A time=00:07:08.59 bitrate=N/A speed=18.5x    frame=10518 fps=444 q=-0.0 size=N/A time=00:07:18.68 bitrate=N/A speed=18.5x    frame=10782 fps=445 q=-0.0 size=N/A time=00:07:29.69 bitrate=N/A speed=18.6x    frame=11043 fps=446 q=-0.0 size=N/A time=00:07:40.58 bitrate=N/A speed=18.6x    frame=11270 fps=446 q=-0.0 size=N/A time=00:07:50.05 bitrate=N/A speed=18.6x    frame=11495 fps=446 q=-0.0 size=N/A time=00:07:59.43 bitrate=N/A speed=18.6x    frame=11703 fps=445 q=-0.0 size=N/A time=00:08:08.11 bitrate=N/A speed=18.6x    frame=11923 fps=445 q=-0.0 size=N/A time=00:08:17.28 bitrate=N/A speed=18.5x    frame=12129 fps=444 q=-0.0 size=N/A time=00:08:25.88 bitrate=N/A speed=18.5x    frame=12384 fps=445 q=-0.0 size=N/A time=00:08:36.51 bitrate=N/A speed=18.6x    frame=12633 fps=446 q=-0.0 size=N/A time=00:08:46.90 bitrate=N/A speed=18.6x    frame=12894 fps=447 q=-0.0 size=N/A time=00:08:57.78 bitrate=N/A speed=18.6x    frame=13147 fps=447 q=-0.0 size=N/A time=00:09:08.33 bitrate=N/A speed=18.7x    frame=13408 fps=448 q=-0.0 size=N/A time=00:09:19.22 bitrate=N/A speed=18.7x    frame=13627 fps=448 q=-0.0 size=N/A time=00:09:28.35 bitrate=N/A speed=18.7x    frame=13795 fps=446 q=-0.0 size=N/A time=00:09:35.36 bitrate=N/A speed=18.6x    frame=14063 fps=447 q=-0.0 size=N/A time=00:09:46.54 bitrate=N/A speed=18.7x    frame=14337 fps=449 q=-0.0 size=N/A time=00:09:57.97 bitrate=N/A speed=18.7x    frame=14481 fps=446 q=-0.0 size=N/A time=00:10:03.97 bitrate=N/A speed=18.6x    frame=14757 fps=447 q=-0.0 size=N/A time=00:10:15.48 bitrate=N/A speed=18.7x    frame=15001 fps=448 q=-0.0 size=N/A time=00:10:25.66 bitrate=N/A speed=18.7x    frame=15236 fps=448 q=-0.0 size=N/A time=00:10:35.46 bitrate=N/A speed=18.7x    frame=15481 fps=448 q=-0.0 size=N/A time=00:10:45.68 bitrate=N/A speed=18.7x    frame=15747 fps=449 q=-0.0 size=N/A time=00:10:56.78 bitrate=N/A speed=18.7x    frame=15995 fps=450 q=-0.0 size=N/A time=00:11:07.12 bitrate=N/A speed=18.8x    frame=16243 fps=450 q=-0.0 size=N/A time=00:11:17.46 bitrate=N/A speed=18.8x    frame=16487 fps=450 q=-0.0 size=N/A time=00:11:27.64 bitrate=N/A speed=18.8x    frame=16749 fps=451 q=-0.0 size=N/A time=00:11:38.57 bitrate=N/A speed=18.8x    frame=16956 fps=451 q=-0.0 size=N/A time=00:11:47.20 bitrate=N/A speed=18.8x    frame=17134 fps=449 q=-0.0 size=N/A time=00:11:54.63 bitrate=N/A speed=18.7x    frame=17362 fps=449 q=-0.0 size=N/A time=00:12:04.18 bitrate=N/A speed=18.7x    frame=17583 fps=449 q=-0.0 size=N/A time=00:12:13.35 bitrate=N/A speed=18.7x    frame=17855 fps=450 q=-0.0 size=N/A time=00:12:24.70 bitrate=N/A speed=18.8x    frame=18126 fps=451 q=-0.0 size=N/A time=00:12:36.00 bitrate=N/A speed=18.8x    frame=18401 fps=452 q=-0.0 size=N/A time=00:12:47.47 bitrate=N/A speed=18.8x    frame=18677 fps=453 q=-0.0 size=N/A time=00:12:58.98 bitrate=N/A speed=18.9x    frame=18920 fps=453 q=-0.0 size=N/A time=00:13:09.12 bitrate=N/A speed=18.9x    frame=19169 fps=453 q=-0.0 size=N/A time=00:13:19.50 bitrate=N/A speed=18.9x    frame=19407 fps=453 q=-0.0 size=N/A time=00:13:29.43 bitrate=N/A speed=18.9x    frame=19628 fps=453 q=-0.0 size=N/A time=00:13:38.65 bitrate=N/A speed=18.9x    frame=19845 fps=453 q=-0.0 size=N/A time=00:13:47.70 bitrate=N/A speed=18.9x    frame=20075 fps=453 q=-0.0 size=N/A time=00:13:57.29 bitrate=N/A speed=18.9x    frame=20301 fps=453 q=-0.0 size=N/A time=00:14:06.72 bitrate=N/A speed=18.9x    frame=20547 fps=453 q=-0.0 size=N/A time=00:14:16.98 bitrate=N/A speed=18.9x    frame=20801 fps=453 q=-0.0 size=N/A time=00:14:27.57 bitrate=N/A speed=18.9x    frame=21032 fps=453 q=-0.0 size=N/A time=00:14:37.20 bitrate=N/A speed=18.9x    frame=21266 fps=453 q=-0.0 size=N/A time=00:14:46.96 bitrate=N/A speed=18.9x    frame=21518 fps=454 q=-0.0 size=N/A time=00:14:57.47 bitrate=N/A speed=18.9x    frame=21692 fps=452 q=-0.0 size=N/A time=00:15:04.73 bitrate=N/A speed=18.9x    frame=21820 fps=450 q=-0.0 size=N/A time=00:15:10.07 bitrate=N/A speed=18.8x    frame=22096 fps=451 q=-0.0 size=N/A time=00:15:21.58 bitrate=N/A speed=18.8x    frame=22365 fps=452 q=-0.0 size=N/A time=00:15:32.80 bitrate=N/A speed=18.8x    frame=22659 fps=453 q=-0.0 size=N/A time=00:15:45.06 bitrate=N/A speed=18.9x    frame=22925 fps=454 q=-0.0 size=N/A time=00:15:56.16 bitrate=N/A speed=18.9x    frame=23192 fps=454 q=-0.0 size=N/A time=00:16:07.29 bitrate=N/A speed=18.9x    frame=23456 fps=455 q=-0.0 size=N/A time=00:16:18.31 bitrate=N/A speed=  19x    frame=23733 fps=456 q=-0.0 size=N/A time=00:16:29.86 bitrate=N/A speed=  19x    frame=23981 fps=456 q=-0.0 size=N/A time=00:16:40.20 bitrate=N/A speed=  19x    frame=24178 fps=455 q=-0.0 size=N/A time=00:16:48.42 bitrate=N/A speed=  19x    frame=24452 fps=456 q=-0.0 size=N/A time=00:16:59.85 bitrate=N/A speed=  19x    frame=24701 fps=456 q=-0.0 size=N/A time=00:17:10.23 bitrate=N/A speed=  19x    frame=24978 fps=457 q=-0.0 size=N/A time=00:17:21.79 bitrate=N/A speed=19.1x    frame=25233 fps=457 q=-0.0 size=N/A time=00:17:32.42 bitrate=N/A speed=19.1x    frame=25496 fps=458 q=-0.0 size=N/A time=00:17:43.39 bitrate=N/A speed=19.1x    frame=25754 fps=458 q=-0.0 size=N/A time=00:17:54.15 bitrate=N/A speed=19.1x    frame=25958 fps=458 q=-0.0 size=N/A time=00:18:02.66 bitrate=N/A speed=19.1x    frame=26223 fps=458 q=-0.0 size=N/A time=00:18:13.71 bitrate=N/A speed=19.1x    frame=26482 fps=458 q=-0.0 size=N/A time=00:18:24.52 bitrate=N/A speed=19.1x    frame=26730 fps=459 q=-0.0 size=N/A time=00:18:34.86 bitrate=N/A speed=19.1x    frame=26927 fps=458 q=-0.0 size=N/A time=00:18:43.08 bitrate=N/A speed=19.1x    frame=27203 fps=459 q=-0.0 size=N/A time=00:18:54.59 bitrate=N/A speed=19.1x    frame=27472 fps=459 q=-0.0 size=N/A time=00:19:05.81 bitrate=N/A speed=19.2x    frame=27711 fps=459 q=-0.0 size=N/A time=00:19:15.77 bitrate=N/A speed=19.2x    frame=27968 fps=460 q=-0.0 size=N/A time=00:19:26.49 bitrate=N/A speed=19.2x    frame=28130 fps=458 q=-0.0 size=N/A time=00:19:33.25 bitrate=N/A speed=19.1x    frame=28424 fps=459 q=-0.0 size=N/A time=00:19:45.51 bitrate=N/A speed=19.2x    frame=28678 fps=460 q=-0.0 size=N/A time=00:19:56.11 bitrate=N/A speed=19.2x    frame=28946 fps=460 q=-0.0 size=N/A time=00:20:07.28 bitrate=N/A speed=19.2x    frame=29218 fps=461 q=-0.0 size=N/A time=00:20:18.63 bitrate=N/A speed=19.2x    frame=29436 fps=460 q=-0.0 size=N/A time=00:20:27.72 bitrate=N/A speed=19.2x    frame=29709 fps=461 q=-0.0 size=N/A time=00:20:39.11 bitrate=N/A speed=19.2x    frame=29873 fps=460 q=-0.0 size=N/A time=00:20:45.95 bitrate=N/A speed=19.2x    frame=30131 fps=460 q=-0.0 size=N/A time=00:20:56.71 bitrate=N/A speed=19.2x    frame=30424 fps=461 q=-0.0 size=N/A time=00:21:08.93 bitrate=N/A speed=19.2x    frame=30636 fps=460 q=-0.0 size=N/A time=00:21:17.77 bitrate=N/A speed=19.2x    frame=30901 fps=461 q=-0.0 size=N/A time=00:21:28.82 bitrate=N/A speed=19.2x    frame=31167 fps=461 q=-0.0 size=N/A time=00:21:39.92 bitrate=N/A speed=19.2x    frame=31415 fps=462 q=-0.0 size=N/A time=00:21:50.26 bitrate=N/A speed=19.3x    frame=31660 fps=462 q=-0.0 size=N/A time=00:22:00.48 bitrate=N/A speed=19.3x    frame=31861 fps=461 q=-0.0 size=N/A time=00:22:08.86 bitrate=N/A speed=19.2x    frame=32076 fps=461 q=-0.0 size=N/A time=00:22:17.83 bitrate=N/A speed=19.2x    frame=32273 fps=460 q=-0.0 size=N/A time=00:22:26.05 bitrate=N/A speed=19.2x    frame=32508 fps=460 q=-0.0 size=N/A time=00:22:35.85 bitrate=N/A speed=19.2x    frame=32699 fps=459 q=-0.0 size=N/A time=00:22:43.82 bitrate=N/A speed=19.2x    frame=32910 fps=459 q=-0.0 size=N/A time=00:22:52.62 bitrate=N/A speed=19.1x    frame=33152 fps=459 q=-0.0 size=N/A time=00:23:02.71 bitrate=N/A speed=19.2x    frame=33365 fps=459 q=-0.0 size=N/A time=00:23:11.59 bitrate=N/A speed=19.1x    frame=33551 fps=458 q=-0.0 size=N/A time=00:23:19.35 bitrate=N/A speed=19.1x    frame=33719 fps=457 q=-0.0 size=N/A time=00:23:26.36 bitrate=N/A speed=19.1x    frame=33891 fps=456 q=-0.0 size=N/A time=00:23:33.53 bitrate=N/A speed=  19x    frame=34101 fps=456 q=-0.0 size=N/A time=00:23:42.29 bitrate=N/A speed=  19x    frame=34331 fps=456 q=-0.0 size=N/A time=00:23:51.88 bitrate=N/A speed=  19x    [Parsed_psnr_10 @ 000001ee2fc18fc0] PSNR y:47.542476 u:48.366901 v:48.378268 average:47.801939 min:37.578103 max:inf
[out#0/null @ 000001ee2d304440] video:14800KiB audio:269388KiB subtitle:0KiB other streams:0KiB global headers:0KiB muxing overhead: unknown
frame=34443 fps=456 q=-0.0 Lsize=N/A time=00:23:56.56 bitrate=N/A speed=  19x    
